<svg id="enymox51z9jq1" xmlns="http://www.w3.org/2000/svg" xmlns:xlink="http://www.w3.org/1999/xlink" viewBox="0 0 500 500" shape-rendering="geometricPrecision" text-rendering="geometricPrecision"><style><![CDATA[#enymox51z9jq4_ts {animation: enymox51z9jq4_ts__ts 4000ms linear 1 normal forwards}@keyframes enymox51z9jq4_ts__ts { 0% {transform: translate(250.051941px,185.324402px) scale(1,1)} 69.750000% {transform: translate(250.051941px,185.324402px) scale(1,1);animation-timing-function: cubic-bezier(0.785000,0.135000,0.150000,0.860000)} 97.250000% {transform: translate(250.051941px,185.324402px) scale(0.300000,0.300000)} 100% {transform: translate(250.051941px,185.324402px) scale(0.300000,0.300000)} }#enymox51z9jq4 {animation: enymox51z9jq4_c_o 4000ms linear 1 normal forwards}@keyframes enymox51z9jq4_c_o { 0% {opacity: 1} 74.750000% {opacity: 1;animation-timing-function: cubic-bezier(0.785000,0.135000,0.150000,0.860000)} 97.250000% {opacity: 0} 100% {opacity: 0} }#enymox51z9jq6_tr {animation: enymox51z9jq6_tr__tr 4000ms linear 1 normal forwards}@keyframes enymox51z9jq6_tr__tr { 0% {transform: translate(250.200000px,194.953334px) rotate(720deg)} 40% {transform: translate(250.200000px,194.953334px) rotate(720deg);animation-timing-function: cubic-bezier(0.785000,0.135000,0.150000,0.860000)} 67.500000% {transform: translate(250.200000px,194.953334px) rotate(1080deg)} 100% {transform: translate(250.200000px,194.953334px) rotate(1080deg)} }#enymox51z9jq7_to {animation: enymox51z9jq7_to__to 4000ms linear 1 normal forwards}@keyframes enymox51z9jq7_to__to { 0% {transform: translate(133.018731px,85.866297px);animation-timing-function: cubic-bezier(0.785000,0.135000,0.150000,0.860000)} 40% {transform: translate(0.478000px,0.001040px)} 100% {transform: translate(0.478000px,0.001040px)} }#enymox51z9jq8_to {animation: enymox51z9jq8_to__to 4000ms linear 1 normal forwards}@keyframes enymox51z9jq8_to__to { 0% {transform: translate(-154.117129px,115.925000px);animation-timing-function: cubic-bezier(0.785000,0.135000,0.150000,0.860000)} 40% {transform: translate(-0.200800px,0.001040px)} 100% {transform: translate(-0.200800px,0.001040px)} }#enymox51z9jq9_to {animation: enymox51z9jq9_to__to 4000ms linear 1 normal forwards}@keyframes enymox51z9jq9_to__to { 0% {transform: translate(153.820261px,-109.261217px);animation-timing-function: cubic-bezier(0.785000,0.135000,0.150000,0.860000)} 40% {transform: translate(0px,0px)} 100% {transform: translate(0px,0px)} }#enymox51z9jq10_to {animation: enymox51z9jq10_to__to 4000ms linear 1 normal forwards}@keyframes enymox51z9jq10_to__to { 0% {transform: translate(-111.702808px,-84.845302px);animation-timing-function: cubic-bezier(0.785000,0.135000,0.150000,0.860000)} 40% {transform: translate(0px,0px)} 100% {transform: translate(0px,0px)} }#enymox51z9jq11_to {animation: enymox51z9jq11_to__to 4000ms linear 1 normal forwards}@keyframes enymox51z9jq11_to__to { 0% {transform: translate(0.200015px,18.024994px);animation-timing-function: cubic-bezier(0.785000,0.135000,0.150000,0.860000)} 40% {transform: translate(0.678001px,-11.597559px)} 100% {transform: translate(0.678001px,-11.597559px)} }#enymox51z9jq11 {animation: enymox51z9jq11_c_o 4000ms linear 1 normal forwards}@keyframes enymox51z9jq11_c_o { 0% {opacity: 0} 12.500000% {opacity: 0;animation-timing-function: cubic-bezier(0.785000,0.135000,0.150000,0.860000)} 40% {opacity: 1} 100% {opacity: 1} }]]></style><defs><clipPath id="enymox51z9jq2"><circle id="enymox51z9jq3" r="186.389000" transform="matrix(1 0 0 1 250.19999999999999 186.38900000000001)" fill="rgb(255,255,255)" stroke="none" stroke-width="1"/></clipPath><filter id="enymox51z9jq6-filter" x="-400%" width="600%" y="-400%" height="600%"><feGaussianBlur id="enymox51z9jq6-filter-drop-shadow-0-blur" in="SourceAlpha" stdDeviation="0,0"/><feOffset id="enymox51z9jq6-filter-drop-shadow-0-offset" dx="0" dy="0" result="tmp"/><feFlood id="enymox51z9jq6-filter-drop-shadow-0-flood" flood-color="rgb(148,147,147)"/><feComposite id="enymox51z9jq6-filter-drop-shadow-0-composite" operator="in" in2="tmp"/><feMerge id="enymox51z9jq6-filter-drop-shadow-0-merge"><feMergeNode id="enymox51z9jq6-filter-drop-shadow-0-merge-node-1"/><feMergeNode id="enymox51z9jq6-filter-drop-shadow-0-merge-node-2" in="SourceGraphic"/></feMerge></filter></defs><g id="enymox51z9jq4_ts" transform="translate(250.051941,185.324402) scale(1,1)"><g id="enymox51z9jq4" transform="translate(-250.051941,-185.324402)"><circle id="enymox51z9jq5" r="186.389000" transform="matrix(1 0 0 1 250.19999999999999 186.38900000000001)" fill="rgb(255,255,255)" stroke="none" stroke-width="1"/><g id="enymox51z9jq6_tr" transform="translate(250.200000,194.953334) rotate(720)"><g id="enymox51z9jq6" transform="skewX(180) skewY(180) translate(-250.338997,-181.993042)" clip-path="url(#enymox51z9jq2)" filter="url(#enymox51z9jq6-filter)"><g id="enymox51z9jq7_to" transform="translate(133.018731,85.866297)"><circle id="enymox51z9jq7" r="186.389000" transform="translate(436.589000,368.381000)" fill="rgb(255,87,34)" stroke="none" stroke-width="1"/></g><g id="enymox51z9jq8_to" transform="translate(-154.117129,115.925000)"><circle id="enymox51z9jq8" r="186.389000" transform="translate(63.811800,368.381000)" fill="rgb(0,31,79)" stroke="none" stroke-width="1"/></g><g id="enymox51z9jq9_to" transform="translate(153.820261,-109.261217)"><circle id="enymox51z9jq9" r="186.389000" transform="translate(436.589000,-4.395960)" fill="rgb(255,87,34)" stroke="none" stroke-width="1"/></g><g id="enymox51z9jq10_to" transform="translate(-111.702808,-84.845302)"><circle id="enymox51z9jq10" r="186.389000" transform="translate(63.811800,-4.395960)" fill="rgb(0,31,79)" stroke="none" stroke-width="1"/></g></g></g><g id="enymox51z9jq11_to" transform="translate(0.200015,18.024994)"><g id="enymox51z9jq11" transform="translate(0,0)" opacity="0"><path id="enymox51z9jq12" d="M70.286000,500L70.286000,475.518000C75.607000,481.377000,81.735000,484.306000,88.670000,484.306000C95.605000,484.306000,101.524000,481.766000,106.426000,476.684000C111.329000,471.602000,113.780000,465.504000,113.780000,458.390000C113.780000,451.275000,111.299000,445.192000,106.337000,440.140000C101.374000,435.088000,95.336000,432.562000,88.222000,432.562000C81.107000,432.562000,75.129000,435.462000,70.286000,441.261000L70.286000,441.261000L70.286000,433.818000L62.933000,433.818000L62.933000,500L70.286000,500ZM88.222000,477.401000C83.140000,477.401000,78.805000,475.593000,75.218000,471.976000C71.631000,468.359000,69.838000,463.890000,69.838000,458.569000C69.838000,453.248000,71.586000,448.779000,75.084000,445.162000C78.581000,441.545000,82.901000,439.737000,88.042000,439.737000C93.184000,439.737000,97.533000,441.575000,101.090000,445.252000C104.648000,448.929000,106.426000,453.368000,106.426000,458.569000C106.426000,463.770000,104.618000,468.209000,101.001000,471.886000C97.384000,475.563000,93.124000,477.401000,88.222000,477.401000ZM147.050000,484.306000C153.985000,484.306000,160.113000,481.377000,165.434000,475.518000L165.434000,475.518000L165.434000,482.692000L172.698000,482.692000L172.698000,433.818000L165.434000,433.818000L165.434000,441.261000C160.591000,435.462000,154.598000,432.562000,147.454000,432.562000C140.309000,432.562000,134.256000,435.088000,129.294000,440.140000C124.332000,445.192000,121.851000,451.260000,121.851000,458.345000C121.851000,465.429000,124.317000,471.527000,129.249000,476.639000C134.181000,481.751000,140.115000,484.306000,147.050000,484.306000ZM147.588000,477.401000C142.566000,477.401000,138.262000,475.533000,134.675000,471.796000C131.088000,468.060000,129.294000,463.651000,129.294000,458.569000C129.294000,453.487000,131.058000,449.078000,134.585000,445.342000C138.112000,441.605000,142.432000,439.737000,147.543000,439.737000C152.655000,439.737000,156.974000,441.545000,160.502000,445.162000C164.029000,448.779000,165.793000,453.263000,165.793000,458.614000C165.793000,463.965000,163.999000,468.433000,160.412000,472.021000C156.825000,475.608000,152.550000,477.401000,147.588000,477.401000ZM209.017000,500C212.784000,500,216.236000,499.447000,219.375000,498.341000C222.514000,497.235000,225.204000,495.606000,227.446000,493.454000C229.688000,491.301000,231.362000,488.671000,232.468000,485.562000C233.574000,482.453000,234.127000,477.670000,234.127000,471.213000L234.127000,471.213000L234.127000,433.818000L226.684000,433.818000L226.684000,440.992000C221.542000,435.372000,215.519000,432.562000,208.614000,432.562000C201.709000,432.562000,195.745000,434.999000,190.723000,439.871000C185.701000,444.744000,183.220000,450.618000,183.280000,457.493000C183.220000,464.069000,185.567000,469.779000,190.320000,474.621000C195.072000,479.464000,200.976000,481.885000,208.031000,481.885000C211.558000,481.885000,214.966000,481.198000,218.254000,479.823000C221.542000,478.447000,224.352000,476.445000,226.684000,473.814000L226.684000,473.814000L226.684000,474.263000C226.684000,479.225000,226.086000,482.901000,224.890000,485.293000C223.695000,487.684000,221.632000,489.597000,218.703000,491.032000C215.773000,492.467000,212.455000,493.185000,208.748000,493.185000C200.677000,493.185000,194.908000,490.076000,191.441000,483.858000L191.441000,483.858000L183.549000,483.858000C187.794000,494.619000,196.283000,500,209.017000,500ZM208.838000,474.890000C203.517000,474.890000,199.153000,473.231000,195.745000,469.913000C192.337000,466.595000,190.633000,462.545000,190.633000,457.762000C190.633000,452.979000,192.412000,448.779000,195.969000,445.162000C199.526000,441.545000,203.936000,439.737000,209.197000,439.737000C214.159000,439.737000,218.359000,441.411000,221.796000,444.759000C225.234000,448.107000,226.953000,452.351000,226.953000,457.493000C226.953000,462.575000,225.264000,466.745000,221.886000,470.003000C218.508000,473.261000,214.159000,474.890000,208.838000,474.890000ZM268.832000,484.306000C276.006000,484.306000,282.030000,481.781000,286.902000,476.729000C291.775000,471.677000,294.211000,465.594000,294.211000,458.479000C294.211000,451.365000,291.745000,445.267000,286.813000,440.185000C281.880000,435.103000,275.887000,432.562000,268.832000,432.562000C261.718000,432.562000,255.695000,435.103000,250.762000,440.185000C245.830000,445.267000,243.364000,451.365000,243.364000,458.479000C243.364000,465.594000,245.815000,471.677000,250.717000,476.729000C255.620000,481.781000,261.658000,484.306000,268.832000,484.306000ZM268.832000,477.222000C263.691000,477.222000,259.416000,475.428000,256.008000,471.841000C252.601000,468.254000,250.897000,463.890000,250.897000,458.748000C250.897000,453.607000,252.660000,449.168000,256.188000,445.431000C259.715000,441.695000,263.915000,439.826000,268.787000,439.826000C273.660000,439.826000,277.875000,441.695000,281.432000,445.431000C284.989000,449.168000,286.768000,453.592000,286.768000,458.703000C286.768000,463.815000,285.019000,468.179000,281.522000,471.796000C278.024000,475.413000,273.794000,477.222000,268.832000,477.222000Z" fill="rgb(0,31,79)" stroke="none" stroke-width="1"/><path id="enymox51z9jq13" d="M311.698000,482.692000L311.698000,461.887000C311.698000,455.729000,312.266000,451.320000,313.402000,448.660000C314.538000,445.999000,316.287000,443.847000,318.648000,442.203000C321.010000,440.559000,323.506000,439.737000,326.136000,439.737000C328.767000,439.737000,330.949000,440.424000,332.683000,441.799000C334.416000,443.174000,335.537000,444.938000,336.046000,447.090000C336.554000,449.242000,336.808000,452.770000,336.808000,457.672000L336.808000,457.672000L336.808000,482.692000L344.072000,482.692000L344.072000,463.412000C344.072000,457.373000,344.550000,452.815000,345.507000,449.736000C346.463000,446.657000,348.167000,444.221000,350.618000,442.427000C353.069000,440.633000,355.685000,439.737000,358.465000,439.737000C361.245000,439.737000,363.487000,440.409000,365.191000,441.754000C366.895000,443.100000,368.001000,444.759000,368.509000,446.732000C369.017000,448.704000,369.271000,451.813000,369.271000,456.058000L369.271000,456.058000L369.271000,482.692000L376.804000,482.692000L376.804000,456.058000C376.804000,446.971000,375.160000,440.783000,371.872000,437.495000C368.584000,434.207000,364.608000,432.562000,359.945000,432.562000C356.537000,432.562000,353.309000,433.459000,350.260000,435.253000C347.210000,437.046000,344.670000,439.647000,342.637000,443.055000C341.441000,439.707000,339.453000,437.121000,336.673000,435.298000C333.893000,433.474000,330.800000,432.562000,327.392000,432.562000C321.114000,432.562000,315.883000,435.283000,311.698000,440.723000L311.698000,440.723000L311.698000,433.818000L304.345000,433.818000L304.345000,482.692000L311.698000,482.692000ZM411.689000,484.306000C418.863000,484.306000,424.886000,481.781000,429.759000,476.729000C434.631000,471.677000,437.067000,465.594000,437.067000,458.479000C437.067000,451.365000,434.601000,445.267000,429.669000,440.185000C424.737000,435.103000,418.743000,432.562000,411.689000,432.562000C404.574000,432.562000,398.551000,435.103000,393.619000,440.185000C388.686000,445.267000,386.220000,451.365000,386.220000,458.479000C386.220000,465.594000,388.671000,471.677000,393.574000,476.729000C398.476000,481.781000,404.514000,484.306000,411.689000,484.306000ZM411.689000,477.222000C406.547000,477.222000,402.273000,475.428000,398.865000,471.841000C395.457000,468.254000,393.753000,463.890000,393.753000,458.748000C393.753000,453.607000,395.517000,449.168000,399.044000,445.431000C402.571000,441.695000,406.771000,439.826000,411.644000,439.826000C416.516000,439.826000,420.731000,441.695000,424.288000,445.431000C427.846000,449.168000,429.624000,453.592000,429.624000,458.703000C429.624000,463.815000,427.875000,468.179000,424.378000,471.796000C420.881000,475.413000,416.651000,477.222000,411.689000,477.222000Z" fill="rgb(255,87,34)" stroke="none" stroke-width="1"/></g></g></g></g></svg>